<svg xmlns="http://www.w3.org/2000/svg" version="1.1" xmlns:xlink="http://www.w3.org/1999/xlink" xmlns:svgjs="http://svgjs.dev/svgjs" width="2000" height="1500" viewBox="0 0 2000 1500"><rect width="2000" height="1500" fill="#ffffff"></rect><g transform="matrix(0.75,0,0,0.75,249.090909090909,610.9402388538815)"><svg viewBox="0 0 396 74" data-background-color="#ffffff" preserveAspectRatio="xMidYMid meet" height="373" width="2000" xmlns="http://www.w3.org/2000/svg" xmlns:xlink="http://www.w3.org/1999/xlink"><g id="tight-bounds" transform="matrix(1,0,0,1,0.2400000000000091,-0.21564852613846597)"><svg viewBox="0 0 395.52 74.43129705227696" height="74.43129705227696" width="395.52"><g><svg viewBox="0 0 514.1501284617466 96.7558175086029" height="74.43129705227696" width="395.52"><g><rect width="6.25608370729844" height="96.7558175086029" x="95.99686227460931" y="0" fill="#111111" opacity="1" stroke-width="0" stroke="transparent" fill-opacity="1" class="rect-qz-0" data-fill-palette-color="primary" rx="1%" id="qz-0" data-palette-color="#111111"></rect></g><g transform="matrix(1,0,0,1,118.63012846174661,0.24068611320547717)"><svg viewBox="0 0 395.52 96.27444528219195" height="96.27444528219195" width="395.52"><g id="textblocktransform"><svg viewBox="0 0 395.52 96.27444528219195" height="96.27444528219195" width="395.52" id="textblock"><g><svg viewBox="0 0 395.52 69.37250071942445" height="69.37250071942445" width="395.52"><g transform="matrix(1,0,0,1,0,0)"><svg width="395.52" viewBox="-0.2 -46.2 347.46999999999997 60.95" height="69.37250071942445" data-palette-color="#111111"><path d="M26.1-36.95L26.65-36.4Q24.7-33.85 21.8-32.23 18.9-30.6 15.8-30.6L15.8-30.6Q14.8-29.35 14.35-28.25 13.9-27.15 13.9-25.65L13.9-25.65 13.9-9.35Q13.9-5.45 12.7-3.23 11.5-1 8.85 1.05L8.85 1.05 7.8 0.05Q8.55-0.8 8.93-2.15 9.3-3.5 9.3-4.85L9.3-4.85 9.3-22.75Q9.3-25 10.5-27.05 11.7-29.1 13.55-30.6L13.55-30.6 6.65-30.65Q4.75-30.65 3.4-29.98 2.05-29.3 0.75-27.85L0.75-27.85-0.2-28.6Q2.3-31.65 5.08-33.3 7.85-34.95 10.75-34.95L10.75-34.95 14.9-34.95Q18.5-34.95 21.6-35.33 24.7-35.7 26.1-36.95L26.1-36.95ZM36.65-25.45Q39.35-25.45 41.15-24 42.95-22.55 42.95-19.7L42.95-19.7Q42.95-17.4 40.47-14.58 38-11.75 34.67-9.4 31.35-7.05 29-6.1L29-6.1Q30.25-4.1 31.85-3.33 33.45-2.55 35.6-2.55L35.6-2.55Q38-2.55 40.37-3.78 42.75-5 44.3-6.95L44.3-6.95 44.9-5.9Q42.45-2.75 39.7-1.07 36.95 0.6 32.95 0.6L32.95 0.6Q29.9 0.6 27.5-0.9 25.1-2.4 23.75-4.93 22.4-7.45 22.4-10.4L22.4-10.4Q22.4-14.1 24.4-17.6 26.4-21.1 29.7-23.28 33-25.45 36.65-25.45L36.65-25.45ZM34.05-22.3Q31.85-22.3 30.12-20.9 28.4-19.5 27.42-17.3 26.45-15.1 26.45-12.75L26.45-12.75Q26.45-9.65 27.9-7.45L27.9-7.45Q30-8.4 32.45-10.33 34.9-12.25 36.6-14.5 38.3-16.75 38.3-18.6L38.3-18.6Q38.3-22.3 34.05-22.3L34.05-22.3ZM62.55-25.3Q64.59-25.3 66.34-24.15 68.09-23 69.09-20.5L69.09-20.5 65-18.4Q64.5-20.15 63.02-21.15 61.55-22.15 59.9-22.15L59.9-22.15Q57.5-22.15 55.65-20.9 53.8-19.65 52.8-17.7 51.8-15.75 51.8-13.75L51.8-13.75Q51.8-10.25 52.95-7.73 54.1-5.2 56.1-3.88 58.1-2.55 60.6-2.55L60.6-2.55Q63.6-2.55 65.84-4.03 68.09-5.5 70.09-7.8L70.09-7.8 70.95-7Q68.5-3.25 65.77-1.33 63.05 0.6 59.1 0.6L59.1 0.6Q56 0.6 53.55-0.85 51.1-2.3 49.7-4.98 48.3-7.65 48.3-11.15L48.3-11.15Q48.3-15.05 49.9-18.28 51.5-21.5 54.7-23.4 57.9-25.3 62.55-25.3L62.55-25.3ZM81.09-46.2L81.09-10.65 81.29-10.65Q81.79-13.4 83.07-16.82 84.34-20.25 86.49-22.85 88.64-25.45 91.54-25.45L91.54-25.45Q93.09-25.45 93.82-24.33 94.54-23.2 94.67-21.8 94.79-20.4 94.79-18.1L94.79-18.1 94.79-4.2Q94.79-3.6 95.17-3.05 95.54-2.5 96.34-2.5L96.34-2.5Q97.64-2.5 98.99-4.45L98.99-4.45 99.59-3.7Q98.89-2.05 97.37-0.9 95.84 0.25 94.29 0.25L94.29 0.25Q90.39 0.25 90.39-4.8L90.39-4.8 90.39-18.05Q90.39-18.7 90.12-19.25 89.84-19.8 89.19-19.8L89.19-19.8Q86.64-19.8 84.79-15.83 82.94-11.85 81.94-7.08 80.94-2.3 80.94-0.6L80.94-0.6 76.49 0.7 76.49-44.3 81.09-46.2ZM122.14-25.45Q124.14-25.45 124.74-23.98 125.34-22.5 125.34-19.9L125.34-19.9 125.34-18.35 125.34-4.2Q125.34-3.65 125.69-3.08 126.04-2.5 126.69-2.5L126.69-2.5Q127.54-2.5 128.14-3.05 128.74-3.6 129.34-4.45L129.34-4.45 130.09-3.7Q129.34-2.1 127.84-0.93 126.34 0.25 124.99 0.25L124.99 0.25Q122.99 0.25 121.89-1 120.79-2.25 120.79-4.8L120.79-4.8 120.79-18.05Q120.79-18.8 120.64-19.3 120.49-19.8 119.89-19.8L119.89-19.8Q117.84-19.8 115.69-15.85 113.54-11.9 112.02-7.03 110.49-2.15 110.49-0.6L110.49-0.6 106.14 0.7 106.14-20.7Q106.14-21.4 105.77-21.98 105.39-22.55 104.69-22.55L104.69-22.55Q103.49-22.55 102.09-20.4L102.09-20.4 101.34-21.2Q101.99-23 103.49-24.23 104.99-25.45 106.49-25.45L106.49-25.45Q108.59-25.45 109.62-24.45 110.64-23.45 110.64-21.7L110.64-21.7 110.64-8.55 110.84-8.55Q112.19-13 113.44-16.3 114.69-19.6 116.94-22.53 119.19-25.45 122.14-25.45L122.14-25.45ZM144.79-25.45L145.69-24.4Q141.94-22 139.79-19.05 137.64-16.1 137.64-12.1L137.64-12.1Q137.64-9.85 138.59-7.58 139.54-5.3 141.44-3.8 143.34-2.3 145.99-2.3L145.99-2.3Q148.14-2.3 149.81-3.3 151.49-4.3 152.41-6 153.34-7.7 153.34-9.75L153.34-9.75Q153.34-12.1 151.91-14.55 150.49-17 148.19-18.7 145.89-20.4 143.49-20.6L143.49-20.6Q144.49-21.6 145.89-22.7 147.29-23.8 148.74-24.85L148.74-24.85Q152.19-23.7 154.19-20.48 156.19-17.25 156.19-13.3L156.19-13.3Q156.19-9.8 154.76-6.58 153.34-3.35 150.59-1.33 147.84 0.7 144.09 0.7L144.09 0.7Q141.09 0.7 138.56-0.78 136.04-2.25 134.59-4.8 133.14-7.35 133.14-10.45L133.14-10.45Q133.14-15.9 136.36-19.9 139.59-23.9 144.79-25.45L144.79-25.45ZM190.93-36.3Q193.93-36.3 195.83-35 197.73-33.7 197.73-31.6L197.73-31.6Q197.73-29.55 196.11-27.5 194.48-25.45 191.91-24.05 189.33-22.65 186.63-22.45L186.63-22.45 186.13-23.4Q188.78-24.05 190.63-25.98 192.48-27.9 192.48-29.95L192.48-29.95Q192.48-31.6 191.33-32.58 190.18-33.55 188.28-33.55L188.28-33.55Q184.88-33.55 182.18-31.33 179.48-29.1 177.96-25.2 176.43-21.3 176.43-16.4L176.43-16.4Q176.43-10.4 178.43-7 180.43-3.6 184.43-3.6L184.43-3.6Q186.73-3.6 188.86-5.25 190.98-6.9 192.33-9.53 193.68-12.15 193.73-14.95L193.73-14.95 198.48-16.6 198.48 3.55 194.08 5.35 194.08-9.95 193.78-9.95Q193.03-6.8 191.31-4.45 189.58-2.1 187.26-0.85 184.93 0.4 182.43 0.4L182.43 0.4Q179.03 0.4 176.48-1.23 173.93-2.85 172.56-5.85 171.18-8.85 171.18-12.85L171.18-12.85Q171.18-19.4 173.78-24.78 176.38-30.15 180.91-33.23 185.43-36.3 190.93-36.3L190.93-36.3ZM217.38-25Q219.83-25 222.01-23.95 224.18-22.9 225.18-20.75L225.18-20.75 221.58-18.8Q220.78-19.95 219.38-20.88 217.98-21.8 216.38-21.8L216.38-21.8Q213.83-21.8 211.93-20.48 210.03-19.15 209.03-16.9 208.03-14.65 208.03-11.9L208.03-11.9Q208.03-7.95 209.38-5.48 210.73-3 213.63-3L213.63-3Q217.73-3 219.28-6.3 220.83-9.6 220.83-13.5L220.83-13.5 220.83-15.75 225.23-17.6 225.23-4.45Q225.23-3.8 225.58-3.2 225.93-2.6 226.63-2.6L226.63-2.6Q228.08-2.6 229.28-4.6L229.28-4.6 230.03-3.8Q229.43-2.1 227.93-0.93 226.43 0.25 224.93 0.25L224.93 0.25Q222.78 0.25 221.76-1.35 220.73-2.95 220.73-5.6L220.73-5.6 220.63-5.6Q219.38-2.95 217.26-1.18 215.13 0.6 212.78 0.6L212.78 0.6Q208.53 0.6 206.36-2.33 204.18-5.25 204.18-10.15L204.18-10.15Q204.18-14.05 205.93-17.48 207.68-20.9 210.71-22.95 213.73-25 217.38-25L217.38-25ZM254.28-46.2L254.28-4.45Q254.28-3.75 254.6-3.18 254.93-2.6 255.63-2.6L255.63-2.6Q256.33-2.6 257.03-3.23 257.73-3.85 258.08-4.6L258.08-4.6 259.03-3.8Q258.23-2.1 256.75-0.93 255.28 0.25 253.88 0.25L253.88 0.25Q251.58 0.25 250.53-1.05 249.48-2.35 249.53-5.55L249.53-5.55 249.33-5.55Q246.28 0.6 241.88 0.6L241.88 0.6Q237.53 0.6 235.2-2.43 232.88-5.45 232.88-10L232.88-10Q232.88-13.6 234.43-17.15 235.98-20.7 238.85-23 241.73-25.3 245.48-25.3L245.48-25.3Q247.83-25.3 249.58-24.1L249.58-24.1 249.58-44.3 254.28-46.2ZM245.18-22.35Q242.38-22.35 240.55-20.6 238.73-18.85 237.88-16.38 237.03-13.9 237.03-11.75L237.03-11.75Q237.03-10.05 237.63-8 238.23-5.95 239.58-4.48 240.93-3 243.03-3L243.03-3Q246.83-3 248.2-6.28 249.58-9.55 249.58-13.5L249.58-13.5 249.58-20.35Q248.73-21.25 247.6-21.8 246.48-22.35 245.18-22.35L245.18-22.35ZM275.23-25.65Q277.63-25.65 279.83-24.33 282.03-23 283.18-20.75L283.18-20.75 279.58-18.8Q278.83-20.55 277.43-21.55 276.03-22.55 274.33-22.55L274.33-22.55Q271.83-22.55 269.95-20.85 268.08-19.15 267.05-16.65 266.03-14.15 266.03-11.9L266.03-11.9Q266.03-8.4 267.5-5.7 268.98-3 272.23-3L272.23-3Q275.93-3 277.33-6.33 278.73-9.65 278.73-13.5L278.73-13.5 278.73-15.75 283.23-17.6 283.23-2.3Q283.23 1.45 281.48 5.45 279.73 9.45 276.65 12.1 273.58 14.75 269.73 14.75L269.73 14.75Q266.98 14.75 265.38 12.85L265.38 12.85 269.63 9.25Q269.98 10.15 270.8 10.7 271.63 11.25 272.88 11.25L272.88 11.25Q276.63 11.25 277.75 8.47 278.88 5.7 278.88 1.5L278.88 1.5 278.73-2.6Q278.73-4.45 279.08-5.6L279.08-5.6 278.73-5.6Q276.88-2.7 275.15-1.05 273.43 0.6 271.03 0.6L271.03 0.6Q266.73 0.6 264.43-2.23 262.13-5.05 262.13-9.4L262.13-9.4Q262.13-13.65 263.85-17.38 265.58-21.1 268.6-23.38 271.63-25.65 275.23-25.65L275.23-25.65ZM303.47-25.45Q306.17-25.45 307.97-24 309.77-22.55 309.77-19.7L309.77-19.7Q309.77-17.4 307.3-14.58 304.82-11.75 301.5-9.4 298.17-7.05 295.82-6.1L295.82-6.1Q297.07-4.1 298.67-3.33 300.27-2.55 302.42-2.55L302.42-2.55Q304.82-2.55 307.2-3.78 309.57-5 311.12-6.95L311.12-6.95 311.72-5.9Q309.27-2.75 306.52-1.07 303.77 0.6 299.77 0.6L299.77 0.6Q296.72 0.6 294.32-0.9 291.92-2.4 290.57-4.93 289.22-7.45 289.22-10.4L289.22-10.4Q289.22-14.1 291.22-17.6 293.22-21.1 296.52-23.28 299.82-25.45 303.47-25.45L303.47-25.45ZM300.87-22.3Q298.67-22.3 296.95-20.9 295.22-19.5 294.25-17.3 293.27-15.1 293.27-12.75L293.27-12.75Q293.27-9.65 294.72-7.45L294.72-7.45Q296.82-8.4 299.27-10.33 301.72-12.25 303.42-14.5 305.12-16.75 305.12-18.6L305.12-18.6Q305.12-22.3 300.87-22.3L300.87-22.3ZM322.72-38.3L322.72-25 329.67-25 328.17-21.8 322.72-21.8 322.72-4.2Q322.72-3.45 323.17-2.98 323.62-2.5 324.37-2.5L324.37-2.5Q325.42-2.5 327.27-4.45L327.27-4.45 327.97-3.7Q327.02-1.8 325.7-0.88 324.37 0.05 323.2 0.28 322.02 0.5 322.02 0.3L322.02 0.3Q322.07 0.3 322.17 0.28 322.27 0.25 322.47 0.25L322.47 0.25Q318.07 0.25 318.07-4.8L318.07-4.8 318.07-21.8 314.32-21.8 315.87-25 318.07-25 318.07-36.5 322.72-38.3ZM340.12-27.05Q341.82-27.05 342.59-26.45 343.37-25.85 343.37-24.6L343.37-24.6Q343.37-23.25 342.84-22.2 342.32-21.15 341.72-20.4 341.12-19.65 340.92-19.35L340.92-19.35Q341.52-18.35 343.17-17L343.17-17Q344.52-15.85 345.32-14.95 346.12-14.05 346.69-12.53 347.27-11 347.27-8.8L347.27-8.8Q347.27-6.2 346.09-4.05 344.92-1.9 342.84-0.65 340.77 0.6 338.17 0.6L338.17 0.6Q336.57 0.6 334.67-0.08 332.77-0.75 331.87-2L331.87-2 335.22-6.45Q336.42-4.9 337.74-3.8 339.07-2.7 340.62-2.7L340.62-2.7Q342.77-2.7 344.29-4.13 345.82-5.55 345.82-7.55L345.82-7.55Q345.82-9.15 344.49-10.73 343.17-12.3 340.77-14.45L340.77-14.45Q340.47-14.7 339.62-15.48 338.77-16.25 338.37-16.75L338.37-16.75 334.87-11.6 333.27-12.65 337.27-18.2Q336.57-20.15 336.57-22.05L336.57-22.05Q336.57-24.2 337.52-25.63 338.47-27.05 340.12-27.05L340.12-27.05ZM340.12-25.1Q339.47-25.1 339.29-24.75 339.12-24.4 339.12-23.7L339.12-23.7Q339.12-22.8 339.37-22.15 339.62-21.5 339.72-21.25L339.72-21.25Q340.27-21.6 340.74-22.53 341.22-23.45 341.22-24.1L341.22-24.1Q341.22-24.55 340.94-24.83 340.67-25.1 340.12-25.1L340.12-25.1Z" opacity="1" transform="matrix(1,0,0,1,0,0)" fill="#111111" class="wordmark-text-0" data-fill-palette-color="primary" id="text-0"></path></svg></g></svg></g><g transform="matrix(1,0,0,1,0,85.7496831992633)"><svg viewBox="0 0 232.209792 10.524762082928653" height="10.524762082928653" width="232.209792"><g transform="matrix(1,0,0,1,0,0)"><svg width="232.209792" viewBox="1.6 -35.7 803.04 36.400000000000006" height="10.524762082928653" data-palette-color="#111111"><path d="M16 0.7L1.6-35 5.25-35 17.5-4.4 17.8-4.4 25.8-24.2 21.45-35 25.1-35 37.3-4.5 37.6-4.5 47.7-35 51.35-35 36.95 0.7 35.85 0.7 26.5-22.55 17.1 0.7 16 0.7ZM74.55 0L59.15 0 59.15-35 74.4-35 74.4-32.55 65.65-33.7Q63.35-34 62.55-34L62.55-34 62.55-18.75Q63.2-18.75 65.65-18.9L65.65-18.9 73.85-19.4 73.85-17.1 65.65-17.6Q63.2-17.75 62.55-17.75L62.55-17.75 62.55-1Q63.45-1 65.7-1.3L65.7-1.3 74.55-2.45 74.55 0ZM98.54 0L98.54-35 105.24-35Q110.54-35 113.47-32.77 116.39-30.55 116.39-26.55L116.39-26.55Q116.39-23.45 114.57-21.4 112.74-19.35 109.29-18.65L109.29-18.65 109.29-18.35Q112.59-17.7 114.69-15.25 116.79-12.8 117.84-9.2L117.84-9.2Q118.79-5.9 119.72-4.08 120.64-2.25 121.77-1.45 122.89-0.65 124.44-0.3L124.44-0.3 124.44 0 122.39 0Q120.19 0 118.77-0.8 117.34-1.6 116.34-3.5 115.34-5.4 114.44-8.75L114.44-8.75Q112.99-13.9 110.59-16.05 108.19-18.2 104.74-18.2L104.74-18.2 104.44-18.2 104.44-19.1 104.74-19.1Q112.79-19.1 112.79-26.5L112.79-26.5Q112.79-33.8 105.24-33.8L105.24-33.8 101.94-33.8 101.94 0 98.54 0ZM146.04 0L130.64 0 130.64-35 145.89-35 145.89-32.55 137.14-33.7Q134.84-34 134.04-34L134.04-34 134.04-18.75Q134.69-18.75 137.14-18.9L137.14-18.9 145.34-19.4 145.34-17.1 137.14-17.6Q134.69-17.75 134.04-17.75L134.04-17.75 134.04-1Q134.94-1 137.19-1.3L137.19-1.3 146.04-2.45 146.04 0ZM184.14-4.3L184.44-4.3 184.14-1.25Q182.74-0.65 180.74-0.2 178.74 0.25 176.69 0.48 174.64 0.7 173.04 0.7L173.04 0.7Q168.99 0.7 165.54-0.68 162.09-2.05 159.51-4.5 156.94-6.95 155.49-10.28 154.04-13.6 154.04-17.5L154.04-17.5Q154.04-21.4 155.49-24.73 156.94-28.05 159.51-30.5 162.09-32.95 165.54-34.33 168.99-35.7 173.04-35.7L173.04-35.7Q174.69-35.7 176.74-35.45 178.79-35.2 180.74-34.77 182.69-34.35 184.04-33.8L184.04-33.8 183.79-31 183.49-31Q181.64-32.7 178.84-33.6 176.04-34.5 173.04-34.5L173.04-34.5Q168.54-34.5 165.11-32.38 161.69-30.25 159.76-26.43 157.84-22.6 157.84-17.5L157.84-17.5Q157.84-12.35 159.76-8.55 161.69-4.75 165.09-2.63 168.49-0.5 173.04-0.5L173.04-0.5Q176.44-0.5 179.36-1.6 182.29-2.7 184.14-4.3L184.14-4.3ZM190.94-17.5L190.94-17.5Q190.94-21.35 192.31-24.68 193.69-28 196.16-30.48 198.64-32.95 201.96-34.33 205.29-35.7 209.14-35.7L209.14-35.7Q212.99-35.7 216.31-34.33 219.64-32.95 222.11-30.48 224.59-28 225.96-24.68 227.34-21.35 227.34-17.5L227.34-17.5Q227.34-13.65 225.96-10.33 224.59-7 222.11-4.53 219.64-2.05 216.31-0.68 212.99 0.7 209.14 0.7L209.14 0.7Q205.29 0.7 201.96-0.68 198.64-2.05 196.16-4.53 193.69-7 192.31-10.33 190.94-13.65 190.94-17.5ZM194.74-17.5L194.74-17.5Q194.74-12.4 196.54-8.58 198.34-4.75 201.59-2.63 204.84-0.5 209.14-0.5L209.14-0.5Q213.44-0.5 216.69-2.63 219.94-4.75 221.74-8.6 223.54-12.45 223.54-17.5L223.54-17.5Q223.54-22.55 221.74-26.38 219.94-30.2 216.69-32.35 213.44-34.5 209.14-34.5L209.14-34.5Q204.84-34.5 201.61-32.38 198.39-30.25 196.56-26.43 194.74-22.6 194.74-17.5ZM267.18-35L270.78-35 270.78 0 267.38 0 267.38-32.1 267.08-32.1 254.98-8.9 253.43-8.9 239.68-29.35 239.38-29.35 240.48 0 237.08 0 238.33-35.7 239.33-35.7 255.08-12.3 255.38-12.3 267.18-35ZM313.13-35L316.73-35 316.73 0 313.33 0 313.33-32.1 313.03-32.1 300.93-8.9 299.38-8.9 285.63-29.35 285.33-29.35 286.43 0 283.03 0 284.28-35.7 285.28-35.7 301.03-12.3 301.33-12.3 313.13-35ZM328.18 0L324.53 0 337.98-35 341.08-35 354.53 0 350.88 0 344.68-16.4 333.33-16.4 328.18 0ZM338.63-32.4L338.33-32.4 333.68-17.6 344.23-17.6 338.63-32.4ZM365.27 0L361.88 0 363.13-35.7 363.73-35.7 388.88-5.3 389.18-5.3 388.07-35 391.48-35 390.23 0.7 389.63 0.7 364.48-29.7 364.18-29.7 365.27 0ZM414.72 0L403.72 0 403.72-35 414.72-35Q420.52-35 424.82-32.8 429.12-30.6 431.52-26.68 433.92-22.75 433.92-17.5L433.92-17.5Q433.92-12.25 431.52-8.33 429.12-4.4 424.82-2.2 420.52 0 414.72 0L414.72 0ZM414.72-33.8L414.72-33.8 407.12-33.8 407.12-1.2 414.72-1.2Q421.97-1.2 426.05-5.5 430.12-9.8 430.12-17.5L430.12-17.5Q430.12-25.2 426.05-29.5 421.97-33.8 414.72-33.8ZM469.02 0L465.42 0 465.42-14.8 453.02-35 456.82-35 467.97-16.7 468.27-16.7 477.17-35 480.97-35 469.02-15.5 469.02 0ZM484.57-17.5L484.57-17.5Q484.57-21.35 485.94-24.68 487.32-28 489.79-30.48 492.27-32.95 495.59-34.33 498.92-35.7 502.77-35.7L502.77-35.7Q506.62-35.7 509.94-34.33 513.27-32.95 515.74-30.48 518.22-28 519.59-24.68 520.97-21.35 520.97-17.5L520.97-17.5Q520.97-13.65 519.59-10.33 518.22-7 515.74-4.53 513.27-2.05 509.94-0.68 506.62 0.7 502.77 0.7L502.77 0.7Q498.92 0.7 495.59-0.68 492.27-2.05 489.79-4.53 487.32-7 485.94-10.33 484.57-13.65 484.57-17.5ZM488.37-17.5L488.37-17.5Q488.37-12.4 490.17-8.58 491.97-4.75 495.22-2.63 498.47-0.5 502.77-0.5L502.77-0.5Q507.07-0.5 510.32-2.63 513.57-4.75 515.37-8.6 517.17-12.45 517.17-17.5L517.17-17.5Q517.17-22.55 515.37-26.38 513.57-30.2 510.32-32.35 507.07-34.5 502.77-34.5L502.77-34.5Q498.47-34.5 495.24-32.38 492.02-30.25 490.19-26.43 488.37-22.6 488.37-17.5ZM530.96-14L530.96-35 534.36-35 534.36-13.9Q534.36-7.85 537.34-4.48 540.31-1.1 545.71-1.1L545.71-1.1Q549.11-1.1 551.64-2.43 554.16-3.75 555.54-6.1 556.91-8.45 556.81-11.5L556.81-11.5 555.96-35 559.36-35 558.51-11.5Q558.31-5.5 554.94-2.4 551.56 0.7 545.31 0.7L545.31 0.7Q538.56 0.7 534.76-3.23 530.96-7.15 530.96-14L530.96-14ZM596.26 0L592.86 0 592.86-34Q592.11-34 589.76-33.7L589.76-33.7 579.96-32.45 579.96-35 609.16-35 609.16-32.45 599.36-33.7Q597.01-34 596.26-34L596.26-34 596.26 0ZM620.65 0L617.25 0 617.25-35 620.65-35 620.65-18.8 641.65-18.8 641.65-35 645.05-35 645.05 0 641.65 0 641.65-17.6 620.65-17.6 620.65 0ZM673.45 0L658.05 0 658.05-35 673.3-35 673.3-32.55 664.55-33.7Q662.25-34 661.45-34L661.45-34 661.45-18.75Q662.1-18.75 664.55-18.9L664.55-18.9 672.75-19.4 672.75-17.1 664.55-17.6Q662.1-17.75 661.45-17.75L661.45-17.75 661.45-1Q662.35-1 664.6-1.3L664.6-1.3 673.45-2.45 673.45 0ZM705.55 0L697.45 0 697.45-35 704.4-35Q709.8-35 712.8-32.75 715.8-30.5 715.8-26.5L715.8-26.5Q715.8-23.55 714.05-21.48 712.3-19.4 709.15-18.65L709.15-18.65 709.15-18.35Q713.45-17.8 715.87-15.38 718.3-12.95 718.3-9.25L718.3-9.25Q718.3-4.9 714.95-2.45 711.6 0 705.55 0L705.55 0ZM704.45-33.8L704.45-33.8 700.85-33.8 700.85-18.8 704.4-18.8Q712.3-18.8 712.3-26.3L712.3-26.3Q712.3-33.8 704.45-33.8ZM705.55-17.6L705.55-17.6 700.85-17.6 700.85-1.2 705.55-1.2Q714.7-1.2 714.7-9.4L714.7-9.4Q714.7-17.6 705.55-17.6ZM743.69 0L728.29 0 728.29-35 743.54-35 743.54-32.55 734.79-33.7Q732.49-34 731.69-34L731.69-34 731.69-18.75Q732.34-18.75 734.79-18.9L734.79-18.9 742.99-19.4 742.99-17.1 734.79-17.6Q732.34-17.75 731.69-17.75L731.69-17.75 731.69-1Q732.59-1 734.84-1.3L734.84-1.3 743.69-2.45 743.69 0ZM751.14-1.1L751.14-1.1 751.44-4.1 751.74-4.1Q753.69-2.4 756.14-1.45 758.59-0.5 760.99-0.5L760.99-0.5Q764.39-0.5 766.49-2.38 768.59-4.25 768.59-7.4L768.59-7.4Q768.59-9.15 767.82-10.65 767.04-12.15 765.27-13.7 763.49-15.25 760.39-17.05L760.39-17.05Q758.24-18.3 756.29-19.68 754.34-21.05 753.09-22.88 751.84-24.7 751.84-27.25L751.84-27.25Q751.84-31.05 754.59-33.38 757.34-35.7 761.84-35.7L761.84-35.7Q763.84-35.7 766.14-35.27 768.44-34.85 769.69-34.2L769.69-34.2 769.44-31.4 769.14-31.4Q766.29-34.5 761.84-34.5L761.84-34.5Q758.64-34.5 756.69-32.88 754.74-31.25 754.74-28.5L754.74-28.5Q754.74-26.45 755.82-24.98 756.89-23.5 758.59-22.33 760.29-21.15 762.24-20.05L762.24-20.05Q764.49-18.75 766.62-17.3 768.74-15.85 770.12-13.83 771.49-11.8 771.49-8.75L771.49-8.75Q771.49-5.95 770.19-3.83 768.89-1.7 766.52-0.5 764.14 0.7 760.99 0.7L760.99 0.7Q758.99 0.7 756.29 0.2 753.59-0.3 751.14-1.1ZM791.74 0L788.34 0 788.34-34Q787.59-34 785.24-33.7L785.24-33.7 775.44-32.45 775.44-35 804.64-35 804.64-32.45 794.84-33.7Q792.49-34 791.74-34L791.74-34 791.74 0Z" opacity="1" transform="matrix(1,0,0,1,0,0)" fill="#111111" class="slogan-text-1" data-fill-palette-color="secondary" id="text-1"></path></svg></g></svg></g></svg></g></svg></g><g transform="matrix(1,0,0,1,0,0.24068611320547717)"><svg viewBox="0 0 79.61967979477046 96.27444528219195" height="96.27444528219195" width="79.61967979477046"><g><svg xmlns="http://www.w3.org/2000/svg" xmlns:xlink="http://www.w3.org/1999/xlink" version="1.1" x="0" y="0" viewBox="17.753 11.007 64.49499999999999 77.98599999999999" enable-background="new 0 0 100 100" xml:space="preserve" height="96.27444528219195" width="79.61967979477046" class="icon-icon-0" data-fill-palette-color="accent" id="icon-0"><g fill="#111111" data-fill-palette-color="accent"><polygon fill="none" points="66.123,66.859 33.876,66.859 27.415,55.667 24.297,61.067 37.149,83.326 62.852,83.326 75.701,61.067    72.584,55.668  "></polygon><polygon fill="none" points="62.852,61.191 69.313,50 62.852,38.809 37.149,38.809 30.688,50 37.149,61.191  "></polygon><polygon fill="none" points="37.149,16.674 24.298,38.933 27.415,44.331 33.875,33.141 66.123,33.141 72.584,44.332 75.701,38.933    62.852,16.674  "></polygon><path d="M82.247 38.933L66.123 11.007H33.876L17.753 38.933 24.142 50l-6.389 11.067 16.123 27.926h32.248l16.124-27.926L75.856 50 82.247 38.933zM62.852 83.326H37.149L24.297 61.067l3.118-5.4 6.461 11.192h32.247l6.461-11.191 3.117 5.399L62.852 83.326zM30.688 50l6.461-11.191h25.703L69.313 50l-6.461 11.191H37.149L30.688 50zM72.584 44.332l-6.461-11.191H33.875l-6.46 11.19-3.117-5.398 12.851-22.259h25.703l12.85 22.259L72.584 44.332z" fill="#111111" data-fill-palette-color="accent"></path></g></svg></g></svg></g></svg></g><defs></defs></svg><rect width="395.52" height="74.43129705227696" fill="none" stroke="none" visibility="hidden"></rect></g></svg></g></svg>